<svg width="32" height="32" viewBox="0 0 32 32" fill="none" xmlns="http://www.w3.org/2000/svg">
<g clip-path="url(#clip0_34_2003)">
<path d="M11.5778 24C11.2074 24 10.8926 23.8704 10.6333 23.6111C10.3741 23.3519 10.2445 23.037 10.2445 22.6667V10H9.33334V8.66667H13.5111V8H19.3778V8.66667H23.5556V10H22.6445V22.6667C22.6445 23.0222 22.5111 23.3333 22.2445 23.6C21.9778 23.8667 21.6667 24 21.3111 24H11.5778ZM21.3111 10H11.5778V22.6667H21.3111V10ZM13.9333 20.7556H15.2667V11.8889H13.9333V20.7556ZM17.6222 20.7556H18.9556V11.8889H17.6222V20.7556Z" fill="#94A4B6"/>
<circle cx="16" cy="16" r="15.25" stroke="#94A4B6" stroke-width="1.5"/>
</g>
<defs>
<clipPath id="clip0_34_2003">
<rect width="32" height="32" fill="white"/>
</clipPath>
</defs>
</svg>
