<svg width="32" height="32" viewBox="0 0 32 32" fill="none" xmlns="http://www.w3.org/2000/svg">
<g clip-path="url(#clip0_34_2002)">
<circle cx="16" cy="16" r="15.25" stroke="#7700B3" stroke-width="1.5"/>
<path d="M23.6289 11.1651C23.1226 11.6714 22.3017 11.6714 21.7954 11.1651L20.8349 10.2046C20.3286 9.69832 20.3286 8.8774 20.8349 8.37108C21.0823 8.12369 21.3879 8 21.7517 8C22.1155 8 22.4211 8.12369 22.6685 8.37108L23.6289 9.33151C23.8763 9.5789 24 9.88449 24 10.2483C24 10.6121 23.8763 10.9177 23.6289 11.1651ZM20.3984 11.6016C21.1699 12.3732 21.1699 13.6241 20.3984 14.3956L10.794 24H8V21.206L17.6044 11.6016C18.3759 10.8301 19.6268 10.8301 20.3984 11.6016ZM19.4598 12.5402L18.9795 12.06L19.94 13.0205L19.4598 12.5402Z" fill="#7700B3"/>
</g>
<defs>
<clipPath id="clip0_34_2002">
<rect width="32" height="32" fill="white"/>
</clipPath>
</defs>
</svg>
