<svg width="24" height="24" viewBox="0 0 24 24" fill="none" xmlns="http://www.w3.org/2000/svg">
<path d="M2.3999 20.4V18.6H4.9199V9.42C4.9199 7.74 5.4149 6.245 6.4049 4.935C7.3949 3.625 8.6999 2.8 10.3199 2.46V1.59C10.3199 1.13 10.4849 0.75 10.8149 0.45C11.1449 0.15 11.5399 0 11.9999 0C12.4599 0 12.8549 0.15 13.1849 0.45C13.5149 0.75 13.6799 1.13 13.6799 1.59V2.46C15.2999 2.8 16.6099 3.625 17.6099 4.935C18.6099 6.245 19.1099 7.74 19.1099 9.42V18.6H21.5999V20.4H2.3999ZM11.9999 24C11.3599 24 10.7999 23.765 10.3199 23.295C9.8399 22.825 9.5999 22.26 9.5999 21.6H14.3999C14.3999 22.26 14.1649 22.825 13.6949 23.295C13.2249 23.765 12.6599 24 11.9999 24ZM6.7199 18.6H17.3099V9.42C17.3099 7.94 16.7999 6.68 15.7799 5.64C14.7599 4.6 13.5099 4.08 12.0299 4.08C10.5499 4.08 9.2949 4.6 8.2649 5.64C7.2349 6.68 6.7199 7.94 6.7199 9.42V18.6Z" fill="#94A4B6"/>
</svg>
