<svg width="16" height="16" viewBox="0 0 16 16" fill="none" xmlns="http://www.w3.org/2000/svg">
<g clip-path="url(#clip0_30_517)">
<path d="M15.0222 15.9679L9.17778 10.3572C8.73333 10.727 8.21482 11.015 7.62222 11.2212C7.02963 11.4275 6.4 11.5306 5.73333 11.5306C4.13333 11.5306 2.77778 10.9972 1.66667 9.93058C0.555556 8.86391 0 7.5768 0 6.06924C0 4.56169 0.555556 3.27458 1.66667 2.20791C2.77778 1.14124 4.12593 0.60791 5.71111 0.60791C7.28148 0.60791 8.61852 1.14124 9.72222 2.20791C10.8259 3.27458 11.3778 4.56169 11.3778 6.06924C11.3778 6.6808 11.2741 7.27102 11.0667 7.83991C10.8593 8.4088 10.5481 8.94213 10.1333 9.43991L16 15.0292L15.0222 15.9679ZM5.71111 10.2506C6.91111 10.2506 7.93333 9.84169 8.77778 9.02391C9.62222 8.20613 10.0444 7.22124 10.0444 6.06924C10.0444 4.91724 9.62222 3.93235 8.77778 3.11458C7.93333 2.2968 6.91111 1.88791 5.71111 1.88791C4.4963 1.88791 3.46296 2.2968 2.61111 3.11458C1.75926 3.93235 1.33333 4.91724 1.33333 6.06924C1.33333 7.22124 1.75926 8.20613 2.61111 9.02391C3.46296 9.84169 4.4963 10.2506 5.71111 10.2506Z" fill="#94A4B6"/>
</g>
<defs>
<clipPath id="clip0_30_517">
<rect width="16" height="16" fill="white"/>
</clipPath>
</defs>
</svg>
